<svg id="apWeave" xmlns="http://www.w3.org/2000/svg" xmlns:xlink="http://www.w3.org/1999/xlink" viewBox="0 0 292.12 292.12"><defs><style>.cls-1{fill:url(#New_Gradient_Swatch_1);}.cls-2{fill:url(#New_Gradient_Swatch_1-2);}.cls-3{fill:url(#New_Gradient_Swatch_1-3);}.cls-4{fill:url(#New_Gradient_Swatch_1-4);}.cls-5{fill:url(#New_Gradient_Swatch_1-5);}.cls-6{fill:url(#New_Gradient_Swatch_1-6);}.cls-7{fill:url(#New_Gradient_Swatch_1-7);}.cls-8{fill:url(#New_Gradient_Swatch_1-8);}.cls-9{fill:url(#New_Gradient_Swatch_1-9);}.cls-10{fill:url(#New_Gradient_Swatch_1-10);}.cls-11{fill:url(#New_Gradient_Swatch_1-11);}.cls-12{fill:url(#New_Gradient_Swatch_1-12);}.cls-13{fill:url(#New_Gradient_Swatch_1-13);}.cls-14{fill:url(#New_Gradient_Swatch_1-14);}.cls-15{fill:url(#New_Gradient_Swatch_1-15);}.cls-16{fill:url(#New_Gradient_Swatch_1-16);}.cls-17{fill:url(#New_Gradient_Swatch_1-17);}.cls-18{fill:url(#New_Gradient_Swatch_1-18);}.cls-19{fill:url(#New_Gradient_Swatch_1-19);}.cls-20{fill:url(#New_Gradient_Swatch_1-20);}.cls-21{fill:url(#New_Gradient_Swatch_1-21);}.cls-22{fill:url(#New_Gradient_Swatch_1-22);}.cls-23{fill:url(#New_Gradient_Swatch_1-23);}.cls-24{fill:url(#New_Gradient_Swatch_1-24);}.cls-25{fill:url(#New_Gradient_Swatch_1-25);}.cls-26{fill:url(#New_Gradient_Swatch_1-26);}</style><linearGradient id="New_Gradient_Swatch_1" x1="65.75" y1="-30.24" x2="340.52" y2="229.05" gradientUnits="userSpaceOnUse"><stop offset="0" stop-color="#ffbc00"/><stop offset="1" stop-color="#ff1744"/></linearGradient><linearGradient id="New_Gradient_Swatch_1-2" x1="48.79" y1="-12.27" x2="323.57" y2="247.02" xlink:href="#New_Gradient_Swatch_1"/><linearGradient id="New_Gradient_Swatch_1-3" x1="79.34" y1="-44.64" x2="354.11" y2="214.64" xlink:href="#New_Gradient_Swatch_1"/><linearGradient id="New_Gradient_Swatch_1-4" x1="-12.5" y1="52.67" x2="262.27" y2="311.97" xlink:href="#New_Gradient_Swatch_1"/><linearGradient id="New_Gradient_Swatch_1-5" x1="35.86" y1="1.44" x2="310.62" y2="260.73" xlink:href="#New_Gradient_Swatch_1"/><linearGradient id="New_Gradient_Swatch_1-6" x1="-26.19" y1="67.19" x2="248.57" y2="326.47" xlink:href="#New_Gradient_Swatch_1"/><linearGradient id="New_Gradient_Swatch_1-7" x1="94.06" y1="-60.24" x2="368.83" y2="199.05" xlink:href="#New_Gradient_Swatch_1"/><linearGradient id="New_Gradient_Swatch_1-8" x1="67.26" y1="-31.84" x2="342.03" y2="227.45" xlink:href="#New_Gradient_Swatch_1"/><linearGradient id="New_Gradient_Swatch_1-9" x1="88.46" y1="-54.3" x2="363.23" y2="204.99" xlink:href="#New_Gradient_Swatch_1"/><linearGradient id="New_Gradient_Swatch_1-10" x1="50.85" y1="-14.45" x2="325.62" y2="244.84" xlink:href="#New_Gradient_Swatch_1"/><linearGradient id="New_Gradient_Swatch_1-11" x1="74.06" y1="-39.05" x2="348.83" y2="220.24" xlink:href="#New_Gradient_Swatch_1"/><linearGradient id="New_Gradient_Swatch_1-12" x1="88.43" y1="-54.28" x2="363.2" y2="205.02" xlink:href="#New_Gradient_Swatch_1"/><linearGradient id="New_Gradient_Swatch_1-13" x1="45.8" y1="-9.1" x2="320.57" y2="250.19" xlink:href="#New_Gradient_Swatch_1"/><linearGradient id="New_Gradient_Swatch_1-14" x1="-57.3" y1="100.16" x2="217.47" y2="359.45" xlink:href="#New_Gradient_Swatch_1"/><linearGradient id="New_Gradient_Swatch_1-15" x1="-4.7" y1="44.42" x2="270.07" y2="303.7" xlink:href="#New_Gradient_Swatch_1"/><linearGradient id="New_Gradient_Swatch_1-16" x1="-17.66" y1="58.16" x2="257.1" y2="317.44" xlink:href="#New_Gradient_Swatch_1"/><linearGradient id="New_Gradient_Swatch_1-17" x1="43.65" y1="-6.82" x2="318.42" y2="252.47" xlink:href="#New_Gradient_Swatch_1"/><linearGradient id="New_Gradient_Swatch_1-18" x1="-34.6" y1="76.1" x2="240.17" y2="335.39" xlink:href="#New_Gradient_Swatch_1"/><linearGradient id="New_Gradient_Swatch_1-19" x1="57.34" y1="-21.33" x2="332.11" y2="237.96" xlink:href="#New_Gradient_Swatch_1"/><linearGradient id="New_Gradient_Swatch_1-20" x1="-14.65" y1="54.96" x2="260.12" y2="314.25" xlink:href="#New_Gradient_Swatch_1"/><linearGradient id="New_Gradient_Swatch_1-21" x1="-57.24" y1="100.09" x2="217.53" y2="359.38" xlink:href="#New_Gradient_Swatch_1"/><linearGradient id="New_Gradient_Swatch_1-22" x1="-48.19" y1="90.5" x2="226.58" y2="349.79" xlink:href="#New_Gradient_Swatch_1"/><linearGradient id="New_Gradient_Swatch_1-23" x1="-19.69" y1="60.31" x2="255.06" y2="319.58" xlink:href="#New_Gradient_Swatch_1"/><linearGradient id="New_Gradient_Swatch_1-24" x1="-42.88" y1="84.88" x2="231.89" y2="344.17" xlink:href="#New_Gradient_Swatch_1"/><linearGradient id="New_Gradient_Swatch_1-25" x1="-36.11" y1="77.69" x2="238.67" y2="336.99" xlink:href="#New_Gradient_Swatch_1"/><linearGradient id="New_Gradient_Swatch_1-26" x1="-62.91" y1="106.09" x2="211.87" y2="365.39" xlink:href="#New_Gradient_Swatch_1"/></defs><title>Artboard 45</title><g id="apWeave_1"><path class="cls-1" d="M135.06,38h14.21L130.59,19.34a20.06,20.06,0,0,0-26.41-1.7,30.22,30.22,0,0,1,19.3,8.8Z"/><path class="cls-2" d="M115.9,38h4.57l-2.29-2.29a38.62,38.62,0,0,0-8.33-6.26,20.07,20.07,0,0,0-22,4.27L83.55,38H115.9Z"/><path class="cls-3" d="M163.87,38h12.34L144.06,5.86a20.09,20.09,0,0,0-25.16-2.6,30.27,30.27,0,0,1,19,8.78Z"/><path class="cls-4" d="M48.34,91l3.23-3.23H45.51A19.84,19.84,0,0,0,38,89.23a20.06,20.06,0,0,0-12.56,18.58v6L38,101.31Z"/><path class="cls-5" d="M204.36,77.44v-10H45.51A20.08,20.08,0,0,0,25.64,84.87a30.22,30.22,0,0,1,19.87-7.43Z"/><path class="cls-6" d="M78.51,87.76H66.16l-9.09,9.09-8.73,8.73L5.86,148.06a20.09,20.09,0,0,0-2.6,25.16,30.27,30.27,0,0,1,8.78-19l65.4-65.4Z"/><path class="cls-7" d="M202.89,38a20.06,20.06,0,0,0-18.58-12.56h-6.06L190.81,38Z"/><polygon class="cls-8" points="184.8 87.76 204.36 107.32 204.36 93.11 204.36 87.76 184.8 87.76"/><path class="cls-9" d="M262.64,109.85a20.05,20.05,0,0,0-4.26-22l-4.28-4.29v36.93l4.28-4.28A19.83,19.83,0,0,0,262.64,109.85Z"/><path class="cls-10" d="M199,204.36l73.77-73.77a20.07,20.07,0,0,0,1.69-26.41,30.19,30.19,0,0,1-8.79,19.3L184.8,204.36Z"/><path class="cls-11" d="M214.68,159.89l10-10V45.51a20.08,20.08,0,0,0-17.48-19.87,30.26,30.26,0,0,1,7.43,19.87Z"/><path class="cls-12" d="M235.05,138v1.52l8.73-8.73V45.51a20.1,20.1,0,0,0-15.95-19.63,30.23,30.23,0,0,1,7.22,19.63Z"/><path class="cls-13" d="M204.36,57.07V48.34H45.51a20.08,20.08,0,0,0-19.63,16,30.23,30.23,0,0,1,19.63-7.22Z"/><path class="cls-14" d="M33.74,175.93a20.08,20.08,0,0,0,0,28.36L38,208.57V171.65l-2.29,2.28Z"/><path class="cls-15" d="M87.76,214.68v10H246.61a20.07,20.07,0,0,0,19.86-17.48,30.23,30.23,0,0,1-19.86,7.43Z"/><path class="cls-16" d="M176.22,254.1h-4.57l2.28,2.28,2,2a19.62,19.62,0,0,0,6.34,4.26,20.05,20.05,0,0,0,22-4.26l4.28-4.28H176.22Z"/><path class="cls-17" d="M246.61,204.36a20.11,20.11,0,0,0,20.05-20.05v-6.06l-26.11,26.11Z"/><path class="cls-18" d="M157.05,254.1h-14.2l18.68,18.68a20.05,20.05,0,0,0,26.4,1.7,30.3,30.3,0,0,1-19.3-8.8Z"/><path class="cls-19" d="M280.08,137.89l-66.47,66.47H226l60.3-60.3a20.08,20.08,0,0,0,2.59-25.16A30.2,30.2,0,0,1,280.08,137.89Z"/><path class="cls-20" d="M87.76,235.05v8.73H246.61a20.08,20.08,0,0,0,19.62-15.95,30.18,30.18,0,0,1-19.62,7.22Z"/><path class="cls-21" d="M57.07,152.6v-.16l-.84.84-7.89,7.9v85.43a20.07,20.07,0,0,0,16,19.62,30.2,30.2,0,0,1-7.22-19.62Z"/><path class="cls-22" d="M128.25,254.1H115.9l32.16,32.16a20.09,20.09,0,0,0,25.16,2.59,30.2,30.2,0,0,1-19-8.77Z"/><path class="cls-23" d="M93.11,87.76,19.33,161.53a20.06,20.06,0,0,0-1.69,26.4,30.24,30.24,0,0,1,8.8-19.3L38,157.06l69.29-69.3Z"/><path class="cls-24" d="M67.42,142.12l0,.16V246.61a20.06,20.06,0,0,0,17.48,19.86,30.18,30.18,0,0,1-7.43-19.86V132.13Z"/><polygon class="cls-25" points="87.76 199.01 87.76 204.36 107.31 204.36 87.76 184.8 87.76 199.01"/><path class="cls-26" d="M89.22,254.1a20.09,20.09,0,0,0,18.59,12.56h6L101.3,254.1Z"/></g></svg>