<svg xmlns="http://www.w3.org/2000/svg" xmlns:xlink="http://www.w3.org/1999/xlink" viewBox="0 0 364.29 309.57"><defs><style>.cls-1{fill:url(#Sky_15);}.cls-2,.cls-3{fill:none;stroke:#231f20;stroke-miterlimit:10;stroke-width:20px;}.cls-2{stroke-linecap:round;}</style><linearGradient id="Sky_15" x1="-18.99" y1="174.75" x2="191.29" y2="-45.51" gradientUnits="userSpaceOnUse"><stop offset="0.01" stop-color="#ec7d4c"/><stop offset="0.8" stop-color="#f6b744"/><stop offset="1" stop-color="#f8c642"/></linearGradient></defs><title>Artboard 9</title><g id="car"><circle id="carShape" class="cls-1" cx="75.63" cy="75.63" r="75.63"/><g id="car-2" data-name="car"><line class="cls-2" x1="91.89" y1="245.39" x2="91.89" y2="274.19"/><path class="cls-3" d="M272.4,146.13V92.32A46.12,46.12,0,0,0,226.28,46.2H138A46.12,46.12,0,0,0,91.89,92.32v53.81Z"/><path class="cls-3" d="M92.7,146.13H271.59a35.35,35.35,0,0,1,35.35,35.35V243a0,0,0,0,1,0,0H57.35a0,0,0,0,1,0,0V181.48A35.35,35.35,0,0,1,92.7,146.13Z"/><circle class="cls-3" cx="106.19" cy="193.64" r="14.3"/><circle class="cls-3" cx="258.11" cy="193.64" r="14.3"/><line class="cls-3" x1="161.25" y1="199.79" x2="203.05" y2="199.79"/><line class="cls-2" x1="272.4" y1="245.39" x2="272.4" y2="274.19"/><path class="cls-3" d="M253.86,145.63a21.2,21.2,0,0,0-42.39,0Z"/></g></g></svg>