<?xml version="1.0" encoding="utf-8"?>
<!-- Generator: Adobe Illustrator 22.1.0, SVG Export Plug-In . SVG Version: 6.00 Build 0)  -->
<svg version="1.1" xmlns="http://www.w3.org/2000/svg" xmlns:xlink="http://www.w3.org/1999/xlink" x="0px" y="0px"
	 viewBox="0 0 364.3 309.6" style="enable-background:new 0 0 364.3 309.6;" xml:space="preserve">
<style type="text/css">
	.st0{fill:url(#carShape_1_);}
	.st1{fill:none;stroke:#231F20;stroke-width:20;stroke-linecap:round;stroke-miterlimit:10;}
	.st2{fill:none;stroke:#231F20;stroke-width:20;stroke-miterlimit:10;}
</style>
<g id="home_1_">
</g>
<g id="car">
	<linearGradient id="carShape_1_" gradientUnits="userSpaceOnUse" x1="-18.9877" y1="174.7457" x2="191.2942" y2="-45.5101">
		<stop  offset="5.618000e-03" style="stop-color:#EC7D4C"/>
		<stop  offset="0.8017" style="stop-color:#F6B744"/>
		<stop  offset="1" style="stop-color:#F8C642"/>
	</linearGradient>
	<circle id="carShape" class="st0" cx="75.6" cy="75.6" r="75.6"/>
	<g id="car_1_">
		<line class="st1" x1="91.9" y1="245.4" x2="91.9" y2="274.2"/>
		<g>
			<path class="st2" d="M272.4,146.1V92.3c0-25.5-20.6-46.1-46.1-46.1H138c-25.5,0-46.1,20.6-46.1,46.1v53.8H272.4z"/>
			<path class="st2" d="M306.9,243H57.4v-61.5c0-19.5,15.8-35.3,35.3-35.3h178.9c19.5,0,35.3,15.8,35.3,35.3V243z"/>
			<circle class="st2" cx="106.2" cy="193.6" r="14.3"/>
			<circle class="st2" cx="258.1" cy="193.6" r="14.3"/>
			<line class="st2" x1="161.2" y1="199.8" x2="203" y2="199.8"/>
			<line class="st1" x1="272.4" y1="245.4" x2="272.4" y2="274.2"/>
			<path class="st2" d="M253.9,145.6c-0.1-11.6-9.5-21-21.2-21s-21.1,9.4-21.2,21H253.9z"/>
		</g>
	</g>
</g>
</svg>
