<?xml version="1.0" encoding="utf-8"?>
<!-- Generator: Adobe Illustrator 22.1.0, SVG Export Plug-In . SVG Version: 6.00 Build 0)  -->
<svg version="1.1" xmlns="http://www.w3.org/2000/svg" xmlns:xlink="http://www.w3.org/1999/xlink" x="0px" y="0px"
	 viewBox="0 0 321.2 253.4" style="enable-background:new 0 0 321.2 253.4;" xml:space="preserve">
<style type="text/css">
	.st0{fill:url(#creditcardShape_1_);}
	.st1{fill:none;stroke:#231F20;stroke-width:20;stroke-miterlimit:10;}
	.st2{fill:none;stroke:#231F20;stroke-width:20;stroke-linecap:round;stroke-miterlimit:10;}
</style>
<g id="home_1_">
</g>
<g id="creditcard">
	
		<linearGradient id="creditcardShape_1_" gradientUnits="userSpaceOnUse" x1="-2028.9115" y1="848.6584" x2="-2164.6165" y2="533.6733" gradientTransform="matrix(-1 0 0 -1 -1833.3201 813.1382)">
		<stop  offset="0" style="stop-color:#C8E6C9"/>
		<stop  offset="0.5" style="stop-color:#81C784"/>
		<stop  offset="1" style="stop-color:#81C784"/>
	</linearGradient>
	<path id="creditcardShape" class="st0" d="M321.2,124.5C321.2,55.7,265.5,0,196.7,0v124.5H321.2z"/>
	<g id="creditcard_1_">
		<path class="st1" d="M286.8,240.9H34.5c-6.6,0-12-5.4-12-12V62c0-6.6,5.4-12,12-12h252.3c6.6,0,12,5.4,12,12v166.9
			C298.8,235.5,293.4,240.9,286.8,240.9z"/>
		<circle class="st1" cx="83.2" cy="110.9" r="21.3"/>
		<path class="st2" d="M62,203.5c5.7,0,70.9,0,70.9,0"/>
		<path class="st2" d="M171.8,203.5c5.7,0,45.3,0,45.3,0"/>
	</g>
</g>
</svg>
