<svg xmlns="http://www.w3.org/2000/svg" xmlns:xlink="http://www.w3.org/1999/xlink" viewBox="0 0 284.6 262.57"><defs><style>.cls-1{fill:url(#Sky_15);}.cls-2{fill:none;stroke:#231f20;stroke-miterlimit:10;stroke-width:19.01px;}.cls-3{fill:#231f20;}</style><linearGradient id="Sky_15" x1="-19.32" y1="174.12" x2="190.96" y2="-46.13" gradientTransform="translate(0.85 0.1) rotate(0.4)" gradientUnits="userSpaceOnUse"><stop offset="0.01" stop-color="#ec7d4c"/><stop offset="0.8" stop-color="#f6b744"/><stop offset="1" stop-color="#f8c642"/></linearGradient></defs><title>Artboard 8</title><g id="heart"><circle id="heartShape" class="cls-1" cx="75.64" cy="75.64" r="75.63"/><g id="heart-2" data-name="heart"><path class="cls-2" d="M235.68,73.58h0A56.67,56.67,0,0,0,155.77,73L142.44,86.17h0L129.29,72.84a56.66,56.66,0,0,0-79.91-.55h0a56.67,56.67,0,0,0-.56,79.91l25.3,25.65,67.21,67.65h0c1.21-1,68.15-66.72,68.15-66.72l25.65-25.29A56.68,56.68,0,0,0,235.68,73.58Z"/><circle class="cls-3" cx="194.69" cy="113.53" r="27.74"/></g></g></svg>