<?xml version="1.0" encoding="utf-8"?>
<!-- Generator: Adobe Illustrator 22.1.0, SVG Export Plug-In . SVG Version: 6.00 Build 0)  -->
<svg version="1.1" xmlns="http://www.w3.org/2000/svg" xmlns:xlink="http://www.w3.org/1999/xlink" x="0px" y="0px"
	 viewBox="0 0 347.6 292.6" style="enable-background:new 0 0 347.6 292.6;" xml:space="preserve">
<style type="text/css">
	.st0{fill:url(#walletShape_1_);}
	.st1{fill:none;stroke:#231F20;stroke-width:20;stroke-miterlimit:10;}
	.st2{fill:#231F20;}
</style>
<g id="home_1_">
</g>
<g id="wallet">
	
		<linearGradient id="walletShape_1_" gradientUnits="userSpaceOnUse" x1="2289.8604" y1="-297.0047" x2="2154.1555" y2="-611.9897" gradientTransform="matrix(-1 0 0 -1 2511.7979 -332.5249)">
		<stop  offset="0" style="stop-color:#C8E6C9"/>
		<stop  offset="0.5" style="stop-color:#81C784"/>
		<stop  offset="1" style="stop-color:#81C784"/>
	</linearGradient>
	<path id="walletShape" class="st0" d="M347.6,124.5C347.6,55.7,291.9,0,223.1,0v124.5H347.6z"/>
	<g id="wallet_1_">
		<path class="st1" d="M301.3,273.6h-255c-6.6,0-12-5.4-12-12V73c0-6.6,5.4-12,12-12h255c6.6,0,12,5.4,12,12v188.7
			C313.3,268.2,307.9,273.6,301.3,273.6z"/>
		<circle class="st2" cx="231.3" cy="167.3" r="17"/>
		<path class="st1" d="M310.6,107.3H156.3c-6.6,0-12,5.4-12,12v86.5c0,6.6,5.4,12,12,12h154.3V107.3z"/>
	</g>
</g>
</svg>
